<?xml version="1.0" encoding="utf-8"?>
<!-- Generator: Adobe Illustrator 16.0.0, SVG Export Plug-In . SVG Version: 6.00 Build 0)  -->
<!DOCTYPE svg PUBLIC "-//W3C//DTD SVG 1.1//EN" "http://www.w3.org/Graphics/SVG/1.1/DTD/svg11.dtd">
<svg version="1.1" id="Layer_1" xmlns="http://www.w3.org/2000/svg" xmlns:xlink="http://www.w3.org/1999/xlink" x="0px" y="0px"
	 width="100px" height="100px"  enable-background="new 0 0 100 100" xml:space="preserve">
<g>
	<g>
		<path fill="#3b8995" d="M70.73,59.891c-1.77-2.539-2.658-5.401-2.658-8.582c0-2.9,0.836-5.557,2.504-7.969c0.896-1.311,2.361-2.822,4.389-4.542
			c-1.336-1.641-2.67-2.925-4.004-3.849c-2.414-1.669-5.145-2.503-8.199-2.503c-1.822,0-4.041,0.437-6.66,1.31
			c-2.514,0.873-4.35,1.31-5.502,1.31c-0.873,0-2.643-0.385-5.313-1.155c-2.694-0.771-4.967-1.154-6.813-1.154
			c-4.413,0-8.057,1.848-10.932,5.543c-2.9,3.746-4.35,8.546-4.35,14.397c0,6.208,1.888,12.662,5.658,19.361
			c3.823,6.646,7.687,9.969,11.585,9.969c1.31,0,3.004-0.435,5.081-1.307c2.08-0.845,3.902-1.271,5.469-1.271
			c1.666,0,3.604,0.409,5.811,1.23c2.332,0.824,4.131,1.233,5.389,1.233c3.283,0,6.582-2.515,9.893-7.546
			c2.154-3.21,3.734-6.417,4.732-9.622C74.531,64.048,72.502,62.434,70.73,59.891z M57.645,30.138
			c1.617-1.617,2.809-3.388,3.576-5.312c0.746-1.925,1.117-3.67,1.117-5.236c0-0.102-0.004-0.229-0.02-0.386
			c-0.014-0.153-0.018-0.281-0.018-0.384c-0.027-0.078-0.061-0.218-0.096-0.423c-0.039-0.206-0.072-0.347-0.1-0.423
			c-4.512,1.053-7.721,2.951-9.621,5.696c-1.926,2.771-2.926,6.07-3.002,9.893c1.717-0.153,3.053-0.37,4.002-0.653
			C54.871,32.446,56.256,31.523,57.645,30.138z"/>
	</g>
</g>
</svg>
