<?xml version="1.0" encoding="utf-8"?>
<!-- Generator: Adobe Illustrator 16.0.0, SVG Export Plug-In . SVG Version: 6.00 Build 0)  -->
<!DOCTYPE svg PUBLIC "-//W3C//DTD SVG 1.1//EN" "http://www.w3.org/Graphics/SVG/1.1/DTD/svg11.dtd">
<svg version="1.1" id="Layer_1" xmlns="http://www.w3.org/2000/svg" xmlns:xlink="http://www.w3.org/1999/xlink" x="0px" y="0px"
	 viewBox="53.969 42.741 50 10" enable-background="new 53.969 42.741 50 10" xml:space="preserve">
<g>
	<g>
		<g>
			<g>
				<g>
					<text transform="matrix(1 0 0 1 57.0232 50.5847)" font-family="'Museo-300'" font-size="9.5008">RMD</text>
					<text transform="matrix(1 0 0 1 77.5906 50.5847)" font-family="'Museo-300'" font-size="7.9173">es gns</text>
				</g>
				<rect x="62.694" y="50.795" fill="#3B8995" width="22.581" height="0.093"/>
				<rect x="88.37" y="50.795" width="2.426" height="0.093"/>
			</g>
			<g>
				<rect x="91.665" y="50.795" fill="#231F20" width="2.169" height="0.093"/>
			</g>
		</g>
		<g>
			<path fill="#010101" d="M86.614,46.509c-0.099,0.518-0.179,1.331-0.216,2.387c-0.067,1.983,0.054,3.658,0.271,3.745
				c0.216,0.083,0.447-1.458,0.518-3.441c0.035-1.056,0.015-1.908-0.047-2.488L86.614,46.509z"/>
			<g>
				<path fill="#3B8995" d="M87.309,44.009c-0.006-0.017-0.015-0.034-0.017-0.052c-0.008-0.017-0.015-0.035-0.022-0.052
					c0-0.003,0-0.005-0.002-0.007c-0.004-0.01-0.011-0.021-0.013-0.031c-0.008-0.022-0.019-0.043-0.028-0.066
					c-0.029-0.068-0.058-0.131-0.088-0.19c-0.015-0.021-0.027-0.046-0.035-0.07c-0.101-0.198-0.197-0.333-0.273-0.426
					c0-0.001-0.002-0.003-0.004-0.005c-0.006-0.007-0.01-0.013-0.015-0.02c-0.008-0.006-0.014-0.014-0.022-0.022
					c-0.03-0.036-0.058-0.062-0.082-0.082c-0.01-0.006-0.021-0.011-0.028-0.019c-0.013-0.004-0.022-0.008-0.033-0.014
					c0.006,0.014,0.015,0.04,0.021,0.072c0.004,0.012,0.006,0.024,0.013,0.036c0,0.007,0,0.011,0.002,0.018
					c0.008,0.025,0.015,0.05,0.015,0.077c0.041,0.248,0.057,0.682-0.171,1.171c-0.341,0.732-0.047,1.409,0.095,1.98l0.535,0.174
					C87.561,45.639,87.624,44.86,87.309,44.009z"/>
			</g>
		</g>
		<g>
			<g>
				<path fill="#FFFFFF" d="M87.098,43.526c0.002,0.211,0.008,0.34,0.012,0.34c0.006,0,0.011-0.106,0.013-0.282
					c-0.007-0.013-0.013-0.029-0.017-0.044C87.104,43.535,87.1,43.531,87.098,43.526z"/>
			</g>
		</g>
		<g>
			<g>
				<path fill="#FFFFFF" d="M86.979,43.314c0.004,0.442,0.01,0.75,0.018,0.75c0.009,0,0.013-0.283,0.017-0.698
					c-0.008-0.011-0.014-0.022-0.021-0.034C86.987,43.325,86.983,43.321,86.979,43.314z"/>
			</g>
		</g>
		<g>
			<g>
				<path fill="#FFFFFF" d="M87.447,44.469c0.004,0.159,0.008,0.254,0.012,0.254c0.005,0,0.007-0.074,0.011-0.198
					C87.459,44.508,87.453,44.488,87.447,44.469z"/>
			</g>
		</g>
		<g>
			<g>
				<path fill="#FFFFFF" d="M87.412,44.322c0.004,0.159,0.008,0.254,0.015,0.254c0.002,0,0.006-0.066,0.008-0.18
					c-0.002-0.012-0.006-0.023-0.008-0.036C87.42,44.347,87.416,44.335,87.412,44.322z"/>
			</g>
		</g>
		<g>
			<g>
				<path fill="#FFFFFF" d="M87.367,44.154c-0.007-0.008-0.009-0.017-0.011-0.026c-0.004-0.013-0.008-0.026-0.012-0.04
					c0.004,0.306,0.01,0.505,0.016,0.505c0.007,0,0.011-0.16,0.015-0.414c0-0.001,0-0.003-0.002-0.004
					C87.371,44.167,87.367,44.161,87.367,44.154z"/>
			</g>
		</g>
		<g>
			<g>
				<path fill="#FFFFFF" d="M87.397,44.271c0.005,0.149,0.007,0.239,0.011,0.239s0.008-0.064,0.01-0.173
					c-0.002-0.01-0.006-0.02-0.008-0.03C87.406,44.294,87.402,44.283,87.397,44.271z"/>
			</g>
		</g>
		<g>
			<g>
				<path fill="#FFFFFF" d="M87.276,43.917c0.005,0.309,0.009,0.51,0.017,0.51c0.006,0,0.011-0.164,0.015-0.424
					c-0.011-0.021-0.017-0.044-0.021-0.068C87.285,43.928,87.278,43.924,87.276,43.917z"/>
			</g>
		</g>
		<g>
			<g>
				<path fill="#FFFFFF" d="M87.254,43.856c-0.004-0.008-0.006-0.016-0.006-0.023c0.002,0.292,0.006,0.478,0.013,0.478
					c0.008,0,0.012-0.152,0.014-0.397c0-0.003-0.002-0.006-0.004-0.011C87.264,43.889,87.256,43.872,87.254,43.856z"/>
			</g>
		</g>
		<g>
			<g>
				<path fill="#FFFFFF" d="M87.203,43.731c-0.011-0.015-0.017-0.031-0.025-0.047c0.007,0.31,0.011,0.511,0.017,0.511
					c0.007,0,0.011-0.172,0.015-0.443C87.205,43.745,87.203,43.738,87.203,43.731z"/>
			</g>
		</g>
		<g>
			<g>
				<path fill="#FFFFFF" d="M87.127,43.593c0.006,0.324,0.01,0.536,0.017,0.536c0.008,0,0.014-0.19,0.017-0.485
					c-0.003-0.006-0.005-0.011-0.007-0.017C87.143,43.616,87.136,43.605,87.127,43.593z"/>
			</g>
		</g>
		<g>
			<g>
				<path fill="#FFFFFF" d="M87.095,43.522c0.005,0.299,0.009,0.493,0.015,0.493s0.011-0.166,0.017-0.425
					c-0.011-0.015-0.017-0.032-0.021-0.049C87.104,43.534,87.1,43.528,87.095,43.522z"/>
			</g>
		</g>
		<g>
			<g>
				<path fill="#FFFFFF" d="M87.013,43.365c-0.006-0.009-0.012-0.017-0.017-0.027c0.003,0.357,0.009,0.593,0.015,0.593
					c0.009,0,0.015-0.211,0.017-0.536C87.024,43.386,87.018,43.376,87.013,43.365z"/>
			</g>
		</g>
		<g>
			<g>
				<path fill="#FFFFFF" d="M86.918,43.214c-0.007-0.009-0.015-0.019-0.019-0.027c0,0-0.002-0.001-0.002-0.001
					c0.004,0.396,0.008,0.664,0.016,0.664c0.009,0,0.015-0.245,0.017-0.613C86.926,43.229,86.922,43.221,86.918,43.214z"/>
			</g>
		</g>
		<g>
			<g>
				<path fill="#FFFFFF" d="M86.918,43.214c-0.007-0.009-0.015-0.019-0.019-0.027l-0.002-0.001c0.004,0.377,0.01,0.631,0.016,0.631
					c0.009,0,0.013-0.232,0.017-0.581C86.926,43.229,86.922,43.221,86.918,43.214z"/>
			</g>
		</g>
		<g>
			<g>
				<path fill="#FFFFFF" d="M87.514,44.65c0.004,0.422,0.011,0.712,0.017,0.712c0.008,0,0.015-0.268,0.019-0.664
					C87.537,44.684,87.525,44.668,87.514,44.65z"/>
			</g>
		</g>
		<g>
			<g>
				<path fill="#FFFFFF" d="M87.505,44.625c0.002,0.415,0.008,0.699,0.016,0.699c0.007,0,0.015-0.256,0.017-0.639
					C87.522,44.667,87.51,44.646,87.505,44.625z"/>
			</g>
		</g>
		<g>
			<g>
				<path fill="#FFFFFF" d="M87.484,44.555c-0.005-0.006-0.007-0.012-0.007-0.019c-0.006-0.006-0.01-0.013-0.012-0.02
					c0.002,0.46,0.008,0.783,0.019,0.783c0.006,0,0.012-0.276,0.016-0.683c-0.004-0.011-0.006-0.022-0.008-0.033
					C87.488,44.575,87.486,44.565,87.484,44.555z"/>
			</g>
		</g>
		<g>
			<g>
				<path fill="#FFFFFF" d="M86.952,43.263c-0.006-0.006-0.012-0.011-0.016-0.019c0.004,0.245,0.008,0.397,0.016,0.397
					c0.004,0,0.009-0.134,0.013-0.35C86.959,43.283,86.954,43.273,86.952,43.263z"/>
			</g>
		</g>
		<g>
			<g>
				<path fill="#FFFFFF" d="M86.788,43.066c0.004,0.241,0.011,0.392,0.015,0.392s0.013-0.138,0.015-0.361
					C86.806,43.087,86.799,43.077,86.788,43.066z"/>
			</g>
		</g>
		<g>
			<g>
				<path fill="#FFFFFF" d="M86.78,43.052c0-0.001,0-0.001-0.004-0.001c0.004,0.184,0.01,0.295,0.014,0.295
					c0.007,0,0.011-0.1,0.013-0.264C86.792,43.073,86.786,43.062,86.78,43.052z"/>
			</g>
		</g>
		<g>
			<g>
				<path fill="#FFFFFF" d="M86.78,43.05c-0.007-0.003-0.011-0.006-0.015-0.01c0.002,0.19,0.006,0.306,0.011,0.306
					c0.006,0,0.01-0.105,0.014-0.278C86.786,43.061,86.782,43.056,86.78,43.05z"/>
			</g>
		</g>
		<g>
			<g>
				<path fill="#FFFFFF" d="M86.679,42.969c-0.007-0.001-0.011-0.003-0.015-0.005c0.002,0.021,0.002,0.039,0.002,0.057
					c0.004,0.018,0.009,0.036,0.013,0.053c0.004,0.011,0.006,0.022,0.008,0.034c0.002-0.039,0.002-0.081,0.004-0.129
					C86.687,42.976,86.683,42.971,86.679,42.969z"/>
			</g>
		</g>
		<g>
			<g>
				<path fill="#FFFFFF" d="M86.753,43.029c0.003,0.16,0.009,0.254,0.013,0.254s0.008-0.087,0.011-0.233
					C86.769,43.044,86.761,43.037,86.753,43.029z"/>
			</g>
		</g>
		<g>
			<g>
				<path fill="#FFFFFF" d="M86.952,43.263c-0.006-0.004-0.01-0.009-0.012-0.014c0,0.146,0.006,0.233,0.012,0.233
					c0.002,0,0.004-0.073,0.009-0.196C86.956,43.28,86.954,43.271,86.952,43.263z"/>
			</g>
		</g>
		<g>
			<g>
				<path fill="#FFFFFF" d="M86.876,43.167c0.005,0.21,0.009,0.339,0.013,0.339c0.006,0,0.011-0.119,0.013-0.314
					c0-0.002-0.002-0.004-0.002-0.006C86.888,43.18,86.883,43.174,86.876,43.167z"/>
			</g>
		</g>
		<g>
			<g>
				<path fill="#FFFFFF" d="M86.78,43.051c-0.004,0-0.004-0.002-0.004-0.002c0.004,0.273,0.008,0.446,0.014,0.446
					c0.009,0,0.013-0.159,0.015-0.41C86.797,43.073,86.788,43.063,86.78,43.051z"/>
			</g>
		</g>
		<g>
			<g>
				<path fill="#FFFFFF" d="M87.518,44.656c0.002,0.267,0.007,0.434,0.013,0.434s0.01-0.151,0.015-0.395
					C87.535,44.683,87.525,44.67,87.518,44.656z"/>
			</g>
		</g>
		<g>
			<g>
				<path fill="#FFFFFF" d="M87.412,44.308c-0.01-0.022-0.019-0.044-0.022-0.067c0.002,0.476,0.01,0.813,0.019,0.813
					c0.008,0,0.015-0.282,0.019-0.694c0,0,0,0,0-0.002C87.418,44.342,87.416,44.325,87.412,44.308z"/>
			</g>
		</g>
		<path d="M84.315,54.053"/>
		<path d="M87.09,54.053"/>
	</g>
	<text transform="matrix(1 0 0 1 53.9695 50.5837)" font-family="'MyriadPro-Regular'" font-size="11.1874">{</text>
	<text transform="matrix(1 0 0 1 100.8035 50.5837)" font-family="'MyriadPro-Regular'" font-size="11.1874">}</text>
</g>
</svg>
