<?xml version="1.0" encoding="utf-8"?>
<!-- Generator: Adobe Illustrator 16.0.0, SVG Export Plug-In . SVG Version: 6.00 Build 0)  -->
<!DOCTYPE svg PUBLIC "-//W3C//DTD SVG 1.1//EN" "http://www.w3.org/Graphics/SVG/1.1/DTD/svg11.dtd">
<svg version="1.1" id="Layer_1" xmlns="http://www.w3.org/2000/svg" xmlns:xlink="http://www.w3.org/1999/xlink" x="0px" y="0px"
	 width="100px" height="100px" enable-background="new 0 0 100 100" xml:space="preserve">
<path fill="#3b8995" d="M75.744,32.131H63.296v-0.318c0-3.45-2.806-6.257-6.255-6.257H42.957c-3.448,0-6.255,2.807-6.255,6.257
	v0.318H24.255c-3.449,0-6.255,2.806-6.255,6.255v29.802c0,3.448,2.806,6.256,6.255,6.256h51.489c3.449,0,6.256-2.808,6.256-6.256
	v-29.8C82,34.938,79.193,32.131,75.744,32.131z M40.712,31.813c0-1.239,1.008-2.247,2.245-2.247h14.084
	c1.238,0,2.245,1.007,2.245,2.247v0.318H40.712V31.813z M24.255,36.141h51.489c1.236,0,2.244,1.008,2.244,2.246v4.218
	c-0.049,0.139-0.08,0.288-0.08,0.445c0,1.075-0.348,2.43-3.042,3.396l-15.433,3.907c-0.22-2.048-2.096-3.653-4.371-3.653H44.937
	c-2.286,0-4.168,1.62-4.374,3.68l-15.541-3.934c-2.305-0.826-2.891-1.937-3.012-2.914v-5.145
	C22.01,37.149,23.018,36.141,24.255,36.141z M56.784,50.756v2.617c0,0.75-0.789,1.381-1.722,1.381H44.937
	c-0.934,0-1.722-0.631-1.722-1.381v-2.617c0-0.75,0.788-1.383,1.722-1.383h10.125C55.995,49.373,56.784,50.006,56.784,50.756z
	 M75.744,70.434H24.255c-1.237,0-2.245-1.008-2.245-2.246v-0.502c0.813,0.474,1.756,0.748,2.764,0.748h37.565
	c0.738,0,1.336-0.598,1.336-1.336s-0.598-1.336-1.336-1.336H24.773c-1.356,0-2.491-0.951-2.764-2.211V47.936
	c0.621,0.406,1.347,0.757,2.18,1.05c0.038,0.014,0.076,0.025,0.116,0.035l16.236,4.111v0.24c0,2.235,1.971,4.055,4.395,4.055h10.126
	c2.424,0,4.395-1.817,4.395-4.055v-0.269l16.126-4.083c0.039-0.01,0.078-0.021,0.115-0.035c0.885-0.311,1.646-0.689,2.29-1.127
	v15.691c-0.271,1.26-1.405,2.211-2.762,2.211H68.76c-0.738,0-1.337,0.598-1.337,1.336s0.599,1.336,1.337,1.336h6.467
	c1.008,0,1.95-0.274,2.764-0.748v0.502C77.988,69.426,76.98,70.434,75.744,70.434z"/>
</svg>
