<?xml version="1.0" encoding="utf-8"?>
<!-- Generator: Adobe Illustrator 16.0.0, SVG Export Plug-In . SVG Version: 6.00 Build 0)  -->
<!DOCTYPE svg PUBLIC "-//W3C//DTD SVG 1.1//EN" "http://www.w3.org/Graphics/SVG/1.1/DTD/svg11.dtd">
<svg version="1.1" id="Layer_1" xmlns="http://www.w3.org/2000/svg" xmlns:xlink="http://www.w3.org/1999/xlink" x="0px" y="0px"
	 width="100px" height="100px" enable-background="new 0 0 100 100" xml:space="preserve">
<path fill="#3b8995" d="M77.697,33.944c-2.861-4.9-6.74-8.781-11.641-11.641c-4.902-2.86-10.254-4.29-16.056-4.29c-5.803,0-11.155,1.43-16.056,4.29
	c-4.901,2.859-8.782,6.739-11.642,11.641c-2.86,4.9-4.29,10.254-4.29,16.056c0,5.803,1.431,11.154,4.29,16.057
	c2.859,4.9,6.739,8.779,11.641,11.641c4.9,2.859,10.254,4.289,16.056,4.289c5.803,0,11.156-1.43,16.057-4.289
	s8.779-6.74,11.641-11.641c2.859-4.902,4.289-10.254,4.289-16.057C81.986,44.198,80.557,38.845,77.697,33.944z M54.002,66.83
	c-0.279-0.334-0.377-0.611-0.291-0.834c-0.027,0.139-0.126,0.264-0.293,0.375c-0.138-0.168-0.389-0.375-0.75-0.625
	c-0.361-0.248-0.609-0.459-0.75-0.625c-0.057-0.084-0.131-0.201-0.229-0.355c-0.098-0.152-0.222-0.354-0.375-0.604
	s-0.263-0.465-0.333-0.645c-0.068-0.182-0.074-0.285-0.021-0.312c-0.527,0.223-1.291,0.07-2.29-0.459
	c-0.194-0.109-0.486-0.4-0.875-0.873c-0.388-0.475-0.791-0.68-1.207-0.625c-0.14,0.027-0.327,0.076-0.562,0.145
	c-0.236,0.07-0.438,0.104-0.604,0.104c-0.166,0-0.389-0.055-0.666-0.166c-0.222-0.084-0.521-0.242-0.896-0.479
	c-0.374-0.236-0.631-0.383-0.77-0.438c-0.36-0.193-0.541-0.291-0.541-0.291l-0.667-0.332c-0.167-0.082-0.341-0.215-0.521-0.396
	c-0.181-0.18-0.298-0.367-0.354-0.562c-0.055-0.164-0.124-0.5-0.207-1c-0.083-0.498-0.195-0.859-0.334-1.082
	c-0.166-0.277-0.402-0.555-0.707-0.834c-0.306-0.275-0.584-0.416-0.833-0.416c0.223,0,0.223-0.186,0-0.562
	c-0.223-0.375-0.417-0.645-0.584-0.812c-0.056-0.055-0.223-0.234-0.5-0.54c-0.277-0.307-0.514-0.569-0.707-0.792
	c-0.195-0.223-0.362-0.479-0.501-0.771c-0.138-0.292-0.167-0.535-0.084-0.729c0.029-0.028,0-0.07-0.083-0.125
	c-0.082-0.056-0.188-0.112-0.312-0.167c-0.125-0.056-0.243-0.104-0.354-0.146c-0.111-0.04-0.194-0.062-0.249-0.062
	c0.056,0.112,0.118,0.312,0.188,0.604c0.069,0.291,0.146,0.508,0.229,0.646c0.056,0.11,0.291,0.515,0.709,1.208
	c0.722,1.164,1.055,2.027,0.999,2.582c-0.166,0.055-0.278,0.027-0.333-0.082c-0.056-0.111-0.099-0.266-0.126-0.459
	s-0.055-0.334-0.082-0.416c-0.084-0.168-0.299-0.348-0.646-0.543c-0.348-0.193-0.562-0.389-0.646-0.584
	c0.027,0,0.062-0.012,0.104-0.041c0.042-0.027,0.077-0.041,0.104-0.041c0.028-0.249-0.118-0.568-0.437-0.958
	c-0.319-0.39-0.451-0.666-0.396-0.832c-0.223-0.168-0.417-0.494-0.583-0.979c-0.167-0.487-0.306-0.799-0.418-0.938
	c-0.11-0.167-0.248-0.312-0.415-0.438s-0.375-0.264-0.625-0.417c-0.25-0.152-0.416-0.256-0.5-0.312
	c-0.056-0.027-0.167-0.151-0.333-0.374c-0.916-1.112-1.194-1.708-0.833-1.792c-0.361,0.084-0.659-0.188-0.896-0.812
	c-0.236-0.624-0.312-1.104-0.229-1.438l-0.083-0.041c0.027-0.111,0.042-0.437,0.042-0.979s0.035-1.035,0.104-1.479
	c0.07-0.443,0.202-0.666,0.396-0.666c-0.194,0.027-0.341-0.146-0.438-0.521c-0.097-0.375-0.104-0.633-0.021-0.771
	c0.027-0.083,0.152-0.026,0.374,0.168c0.223,0.193,0.348,0.318,0.375,0.374c0.361-0.195,0.501-0.444,0.417-0.75
	c-0.056-0.111-0.347-0.402-0.874-0.875c-1.194-0.776-1.806-1.152-1.834-1.125c0.166-0.305,0.124-0.568-0.124-0.791
	c-0.278,0.167-0.438,0.208-0.479,0.125s-0.077-0.235-0.104-0.458c-0.027-0.222-0.097-0.347-0.208-0.374
	c-0.14-0.028-0.306-0.139-0.5-0.333c2.472-3.943,5.733-7.025,9.787-9.246c0.167-0.028,0.473-0.042,0.917-0.042
	c0.222,0.027,0.43,0.097,0.624,0.208c0.194,0.11,0.396,0.264,0.604,0.458c0.209,0.193,0.368,0.333,0.479,0.416
	c0.056-0.167-0.014-0.417-0.208-0.75c0.056-0.166,0.36-0.334,0.916-0.5c0.639-0.083,1.056-0.069,1.249,0.042
	c-0.166-0.25-0.443-0.598-0.832-1.041l-0.208,0.208c-0.223-0.194-0.805-0.098-1.749,0.291c-0.056,0.027-0.194,0.104-0.417,0.229
	c-0.223,0.125-0.402,0.216-0.542,0.271c-0.166,0.056-0.332,0.069-0.5,0.041c1.333-0.721,2.638-1.291,3.916-1.707
	c0.083,0.055,0.222,0.173,0.416,0.354s0.348,0.312,0.458,0.396c-0.083-0.056-0.14-0.028-0.167,0.083c-0.11,0.333-0.11,0.611,0,0.833
	c0.14,0.194,0.327,0.306,0.562,0.333c0.236,0.027,0.521,0.014,0.854-0.041c0.332-0.056,0.555-0.084,0.666-0.084l0.416,0.042
	c0.889,0.083,1.236,0,1.041-0.25c0.084,0.112,0.182,0.341,0.292,0.688c0.111,0.348,0.236,0.59,0.374,0.729
	c0.14-0.111,0.168-0.307,0.084-0.584s-0.084-0.473,0-0.583c0.027-0.056,0.111-0.111,0.25-0.167s0.298-0.117,0.479-0.187
	c0.18-0.069,0.298-0.118,0.354-0.146c0.167-0.111,0.056-0.307-0.333-0.584c-0.056-0.027-0.174-0.069-0.354-0.125
	c-0.18-0.055-0.34-0.11-0.479-0.166c-0.138-0.055-0.284-0.132-0.437-0.229c-0.153-0.098-0.223-0.209-0.209-0.334
	s0.091-0.285,0.229-0.479c0.167-0.14,0.438-0.194,0.812-0.167c0.375,0.027,0.659,0.097,0.854,0.208
	c0.75,0.417,0.86,0.792,0.333,1.125c0.277,0.027,0.611,0.139,1,0.333c0.389,0.193,0.541,0.402,0.459,0.625
	c0.222-0.417,0.443-0.625,0.666-0.625c0.138,0.028,0.271,0.215,0.395,0.562c0.124,0.347,0.202,0.534,0.229,0.562
	c0.223,0.305,0.443,0.374,0.668,0.208c0.222-0.167,0.449-0.409,0.686-0.729c0.236-0.318,0.368-0.465,0.396-0.437
	c-0.277-0.11-0.307-0.222-0.083-0.334c0.415-0.249,0.79-0.319,1.124-0.207c0.083,0.055,0.193,0.181,0.332,0.374
	c0.25,0.5,0.209,0.736-0.123,0.708c0.248,0.223,0.354,0.501,0.311,0.833c-0.041,0.333-0.256,0.486-0.645,0.458
	c-0.141,0-0.341-0.069-0.605-0.208s-0.465-0.215-0.604-0.229c-0.141-0.015-0.334,0.062-0.584,0.229
	c-0.11,0.14-0.257,0.375-0.437,0.709c-0.182,0.334-0.341,0.568-0.48,0.707c-0.415,0.417-1.11,0.57-2.082,0.459
	c0.083,0,0.076,0.083-0.021,0.249c-0.099,0.167-0.23,0.354-0.396,0.562c-0.167,0.208-0.265,0.326-0.292,0.354
	c-0.25,0.277-0.417,0.598-0.5,0.958c0,0.057-0.015,0.244-0.041,0.562c-0.028,0.319-0.084,0.562-0.168,0.729
	c0.334-0.084,0.598,0.084,0.791,0.5c0.167,0.389,0.167,0.597,0,0.625c0.917-0.139,1.722-0.083,2.416,0.166
	c1,0.361,1.571,0.723,1.709,1.083c0.166-0.249,0.568-0.265,1.207-0.042c0.25,0.139,0.471,0.556,0.668,1.25
	c0.109,0.416,0.297,0.777,0.562,1.083c0.262,0.305,0.547,0.388,0.854,0.249l0.123-0.082c0.113-0.056,0.203-0.105,0.271-0.146
	c0.07-0.041,0.146-0.097,0.229-0.167c0.084-0.069,0.133-0.132,0.146-0.187c0.014-0.056-0.008-0.111-0.062-0.167
	c-0.193-0.167-0.342-0.396-0.436-0.687c-0.098-0.292-0.076-0.549,0.061-0.771c0.084-0.11,0.305-0.277,0.666-0.5
	c0.361-0.222,0.586-0.444,0.668-0.666c0.111-0.361-0.027-0.659-0.416-0.896c-0.389-0.235-0.584-0.451-0.584-0.646
	c0-0.139,0.09-0.305,0.271-0.5c0.18-0.193,0.256-0.375,0.229-0.541c0-0.084-0.051-0.258-0.146-0.521s-0.152-0.458-0.166-0.583
	s0.049-0.271,0.188-0.437c0.193-0.112,0.652-0.104,1.373,0.021s1.195,0.257,1.418,0.396c0.082,0.055,0.264,0.139,0.541,0.25
	c0.277,0.11,0.521,0.229,0.73,0.354c0.207,0.125,0.324,0.242,0.352,0.354h-0.207c0.193,0.167,0.312,0.361,0.354,0.584
	c0.041,0.222-0.062,0.389-0.312,0.5c0.166-0.028,0.391,0.014,0.668,0.125c0.443,0.166,0.457,0.319,0.041,0.458
	c0.084-0.028,0.201-0.056,0.354-0.084c0.152-0.027,0.27-0.069,0.354-0.125c0.055-0.027,0.125-0.075,0.209-0.146
	c0.082-0.068,0.145-0.11,0.188-0.124c0.041-0.014,0.102-0.028,0.188-0.042c0.082-0.014,0.164,0.007,0.248,0.062
	c0.027,0,0.09-0.07,0.188-0.209c0.096-0.139,0.201-0.276,0.312-0.416c0.111-0.138,0.207-0.207,0.291-0.207
	c0.082,0,0.158,0.034,0.229,0.104s0.125,0.146,0.166,0.229c0.043,0.084,0.084,0.174,0.125,0.271s0.074,0.174,0.104,0.229
	c0.055,0.139,0.188,0.284,0.396,0.437c0.207,0.152,0.34,0.299,0.395,0.437c0.029,0.084,0.084,0.293,0.166,0.626
	c0.084,0.333,0.195,0.562,0.332,0.688c0.139,0.125,0.348,0.229,0.627,0.312c0.055,0.028,0.182,0.015,0.373-0.041
	c0.195-0.056,0.355-0.069,0.48-0.042c0.125,0.028,0.188,0.139,0.188,0.334c0.166-0.167,0.25-0.278,0.25-0.334
	c0.027,0.361,0.115,0.653,0.27,0.875c0.152,0.222,0.396,0.319,0.729,0.291l-0.082,0.917c-0.084,0.139-0.291,0.242-0.625,0.312
	c-0.334,0.07-0.543,0.133-0.627,0.188c-0.082,0.027-0.283,0.194-0.602,0.5c-0.32,0.307-0.453,0.486-0.396,0.542
	c-0.473-0.527-1.182-0.681-2.123-0.458c-1.057,0.165-1.779,0.333-2.166,0.5c-0.445,0.222-0.75,0.43-0.916,0.624
	c-0.029,0.027-0.076,0.125-0.146,0.292c-0.07,0.166-0.139,0.319-0.207,0.458c-0.072,0.138-0.133,0.208-0.188,0.208
	c0.168-0.027,0.354-0.16,0.562-0.396c0.207-0.236,0.34-0.367,0.395-0.396c0.721-0.472,1.318-0.639,1.793-0.496
	c0.611,0.166,0.707,0.389,0.293,0.666c-0.057,0.056-0.203,0.076-0.438,0.062c-0.236-0.014-0.396-0.007-0.48,0.021
	c0.25,0.055,0.459,0.132,0.625,0.229s0.209,0.229,0.125,0.396c0.443,0.25,0.527,0.527,0.25,0.833
	c-0.361,0.361-0.791,0.514-1.291,0.458c0.084,0,0.084,0.056,0,0.167l-0.709,0.457c-0.055,0.028-0.236,0.097-0.541,0.209
	c-0.307,0.11-0.514,0.235-0.625,0.375c-0.082,0.11-0.125,0.277-0.125,0.5s-0.014,0.389-0.041,0.5s-0.139,0.138-0.332,0.083
	c-0.084,0.166-0.342,0.299-0.771,0.396c-0.432,0.098-0.717,0.243-0.854,0.438c0.166,0.223,0.152,0.444-0.041,0.666
	c-0.334,0.278-0.627,0.25-0.875-0.083c-0.141,0.056-0.244,0.194-0.312,0.417c-0.068,0.222-0.174,0.375-0.312,0.458
	c0.195,0.306,0.166,0.527-0.082,0.665c0.027,0,0.088,0.029,0.186,0.085c0.096,0.055,0.201,0.124,0.312,0.207
	c0.111,0.084,0.182,0.126,0.209,0.126c-0.111,0.249-0.266,0.374-0.459,0.374c0.166,0.444-0.041,0.931-0.623,1.458
	c-0.113,0.11-0.287,0.222-0.521,0.333c-0.238,0.11-0.453,0.202-0.646,0.271c-0.195,0.069-0.307,0.118-0.334,0.146
	c-0.277,0.251-0.486,0.508-0.623,0.771c-0.141,0.263-0.16,0.52-0.064,0.771c0.098,0.25,0.355,0.415,0.771,0.5l0.041,0.333v0.749
	l0.041,0.333c0.029,0.194,0.051,0.368,0.064,0.522c0.012,0.152,0.012,0.346,0,0.582c-0.014,0.236-0.078,0.367-0.188,0.395
	c-0.111,0.029-0.264,0-0.459-0.082c-0.223-0.111-0.484-0.723-0.791-1.832c-0.057-0.279-0.225-0.61-0.503-1
	c-0.138,0.139-0.255,0.229-0.353,0.27c-0.095,0.042-0.165,0.051-0.205,0.021c-0.043-0.026-0.12-0.09-0.23-0.187
	S52.084,52.1,52,52.045c-0.14-0.083-0.382-0.152-0.729-0.208c-0.347-0.056-0.563-0.126-0.646-0.209
	c-0.667,0.502-1.07,0.376-1.208-0.373c-0.056,0.138-0.05,0.325,0.021,0.562c0.069,0.235,0.104,0.368,0.104,0.395
	c-0.193,0.362-0.499,0.389-0.915,0.083c-0.166-0.165-0.55-0.186-1.146-0.061c-0.597,0.123-0.992,0.144-1.186,0.061
	c0.027,0,0.083,0.042,0.166,0.126c0.083,0.055,0.14,0.097,0.166,0.124c-0.027,0.111-0.068,0.193-0.125,0.25
	c-0.055,0.055-0.111,0.076-0.166,0.062c-0.057-0.014-0.118-0.014-0.188,0c-0.068,0.014-0.132,0.033-0.187,0.062
	c-0.111,0.082-0.25,0.229-0.416,0.436c-0.167,0.209-0.292,0.342-0.375,0.395c0.166,0.445,0.242,0.785,0.229,1.021
	c-0.015,0.236-0.056,0.582-0.125,1.041c-0.07,0.457-0.104,0.826-0.104,1.104c0,0.445,0.132,0.959,0.396,1.541
	c0.264,0.586,0.576,0.984,0.937,1.209c0.195,0.111,0.529,0.18,1.001,0.207c0.472,0.029,0.805,0,0.998-0.084
	c0.168-0.08,0.292-0.18,0.375-0.289c0.084-0.111,0.153-0.273,0.209-0.48s0.097-0.352,0.125-0.438
	c0.194-0.525,0.555-0.805,1.082-0.83c0.334-0.029,0.576,0.006,0.729,0.102c0.153,0.098,0.217,0.23,0.188,0.395
	c-0.027,0.168-0.083,0.342-0.166,0.521c-0.082,0.182-0.188,0.383-0.312,0.604c-0.124,0.225-0.201,0.391-0.228,0.502
	c-0.057,0.223-0.105,0.533-0.146,0.938c-0.041,0.402-0.076,0.645-0.104,0.729c0.056,0.029,0.264,0.043,0.625,0.043
	c0-0.057,0.021-0.146,0.062-0.271s0.062-0.201,0.062-0.229c0.14,0.221,0.361,0.346,0.667,0.373c0.305,0.029,0.528-0.082,0.666-0.332
	c0.057,0.084,0.224,0.293,0.502,0.625c0.277,0.332,0.43,0.611,0.457,0.832c0.027,0.113,0.084,0.293,0.166,0.545
	c0.084,0.25,0.111,0.422,0.084,0.521c-0.028,0.094-0.166,0.143-0.416,0.143c-0.112,0-0.181,0.043-0.21,0.125
	c-0.027,0.084-0.027,0.188,0,0.314c0.03,0.123,0.064,0.24,0.106,0.354c0.041,0.109,0.097,0.227,0.165,0.352
	c0.069,0.127,0.104,0.201,0.104,0.229c0.5,0.918,1.182,1.166,2.041,0.752c0,0.805-0.193,1.248-0.584,1.33
	C54.527,67.303,54.279,67.162,54.002,66.83z M54.623,76.24c-0.055-0.277-0.082-0.5-0.08-0.666c-0.027-0.225,0.068-0.521,0.291-0.896
	c0.223-0.373,0.334-0.658,0.334-0.854c-0.445-0.109-0.611-0.471-0.502-1.082c0.055-0.416,0.459-0.971,1.209-1.666
	c0.527-0.471,0.693-1.139,0.5-2c-0.084-0.359-0.154-0.887-0.209-1.582s-0.111-1.18-0.166-1.459c0,0.084,0.131,0.16,0.396,0.23
	c0.264,0.066,0.422,0.158,0.479,0.27c0.055-0.084,0.123-0.236,0.207-0.459c0.084-0.221,0.168-0.389,0.25-0.5
	c0.057-0.084,0.172-0.188,0.354-0.312s0.299-0.199,0.354-0.229c0.057-0.027,0.182-0.117,0.375-0.27s0.354-0.271,0.48-0.354
	c0.125-0.084,0.291-0.146,0.5-0.188c0.207-0.043,0.354,0.02,0.436,0.188c0.139,0.166,0.111,0.424-0.082,0.77
	c-0.195,0.348-0.195,0.592,0,0.73c0.027-0.084,0.055-0.266,0.082-0.543s0.111-0.486,0.25-0.625c0.166-0.166,0.326-0.264,0.479-0.291
	c0.152-0.029,0.293-0.008,0.416,0.062c0.125,0.068,0.271,0.166,0.438,0.291s0.32,0.201,0.459,0.229
	c0.416,0.139,0.916,0.445,1.498,0.916c-0.027-0.027-0.027-0.062,0-0.104c0.029-0.041,0.084-0.084,0.168-0.125
	c0.082-0.041,0.158-0.082,0.229-0.125c0.068-0.041,0.145-0.076,0.229-0.104l0.125-0.043c0.193,0,0.334-0.012,0.416-0.041
	c0.082-0.027,0.201,0,0.354,0.084c0.152,0.082,0.258,0.145,0.312,0.188c0.055,0.041,0.152,0.117,0.291,0.229
	c0.137,0.111,0.236,0.195,0.291,0.25c0.084,0.055,0.234,0.152,0.457,0.291s0.395,0.25,0.521,0.332
	c0.125,0.084,0.236,0.209,0.332,0.375c0.098,0.166,0.133,0.348,0.104,0.541c0.168,0.029,0.502,0.139,1.002,0.334
	c0.084,0.055,0.256,0.104,0.521,0.145c0.262,0.043,0.436,0.105,0.52,0.188C65.217,72.615,60.344,75.24,54.623,76.24z"/>
</svg>
